<?xml version="1.0" encoding="utf-8"?>
<!-- Svg Vector Icons : http://www.onlinewebfonts.com/icon -->
<!DOCTYPE svg PUBLIC "-//W3C//DTD SVG 1.1//EN" "http://www.w3.org/Graphics/SVG/1.1/DTD/svg11.dtd">
<svg version="1.1" xmlns="http://www.w3.org/2000/svg" xmlns:xlink="http://www.w3.org/1999/xlink" x="0px" y="0px" viewBox="0 0 1000 1000" enable-background="new 0 0 1000 1000" xml:space="preserve">
<metadata> Svg Vector Icons : http://www.onlinewebfonts.com/icon </metadata>
<g><path d="M500,10C229.4,10,10,229.4,10,500c0,270.6,219.4,490,490,490c270.6,0,490-219.4,490-490C990,229.4,770.6,10,500,10z M500,885c-212.6,0-385-172.4-385-385c0-212.6,172.4-385,385-385s385,172.4,385,385C885,712.6,712.6,885,500,885z"/><path d="M500,640H220V290h280v65.2H300.4V430h180.1v65.2H300.4V578H500V640z"/><path d="M780,638.4h-78.8v-140c1.1-38.2-14.5-56.7-46.6-55.7c-31.1,2.1-47.7,21.8-49.8,58.9v136.8h-78.8V388.6h78.8v38.2c20.3-26.5,47.7-40.8,82-43c63.2-1,94.3,32.9,93.3,101.8V638.4z"/></g>
</svg>